<?xml version="1.0" encoding="UTF-8"?>
<svg width="173px" height="35px" viewBox="0 0 173 35" version="1.1" xmlns="http://www.w3.org/2000/svg" xmlns:xlink="http://www.w3.org/1999/xlink">
    <!-- Generator: Sketch 55.2 (78181) - https://sketchapp.com -->
    <title>Group</title>
    <desc>Created with Sketch.</desc>
    <defs>
        <polygon id="path-1" points="0 0 34.9408867 0 34.9408867 35 0 35"></polygon>
    </defs>
    <g id="Symbols" stroke="none" stroke-width="1" fill="none" fill-rule="evenodd">
        <g id="Admin-logo" transform="translate(-11.000000, -13.000000)">
            <g id="Group" transform="translate(11.000000, 13.000000)">
                <g id="Group-3">
                    <mask id="mask-2" fill="white">
                        <use xlink:href="#path-1"></use>
                    </mask>
                    <g id="Clip-2"></g>
                    <path d="M25.8283343,24.8255535 L25.8283343,24.8255535 C25.1728382,25.1229648 24.3935775,24.8290865 24.0966689,24.1724807 L19.5317107,14.0771204 L14.9639036,24.1787315 C14.6670402,24.8353373 13.8877795,25.1292609 13.2322835,24.8318496 C12.5767875,24.5344383 12.283406,23.7538582 12.5803145,23.0972524 L18.2932048,10.4632063 C18.4068404,10.134541 18.6479939,9.85067316 18.987318,9.69675851 C19.3880948,9.51489645 19.8346334,9.5550284 20.1893772,9.76298076 C20.1904625,9.7636149 20.1916834,9.76420375 20.1928139,9.76483789 C20.2242864,9.7834544 20.2548092,9.80370156 20.2847443,9.82494522 C20.2916628,9.82983716 20.2989431,9.83427613 20.305726,9.83925865 C20.3284259,9.85601805 20.3499954,9.8742269 20.3716554,9.89248105 C20.3837741,9.90262728 20.396345,9.91227525 20.4080115,9.92287444 C20.4230243,9.93650843 20.436997,9.95132011 20.4514671,9.96567883 C20.4679721,9.98216645 20.484884,9.99829171 20.5004394,10.0155494 C20.5091667,10.0252426 20.51708,10.0357512 20.525536,10.0457163 C20.5456585,10.0693606 20.5655097,10.0931408 20.5838234,10.1180534 C20.5874861,10.1230812 20.5907871,10.1285167 20.5943594,10.1336351 C20.648351,10.2093695 20.6936606,10.2903581 20.7304237,10.3752875 L26.4803032,23.0910016 C26.7771666,23.7476074 26.4837851,24.5281422 25.8283343,24.8255535 M8.47975639,24.8318496 L8.47975639,24.8318496 C7.82426036,24.5344383 7.53083364,23.7538582 7.82774223,23.0972524 L13.5891074,10.3561274 C13.886016,9.69952155 14.6652314,9.40559803 15.3207275,9.70300931 C15.9762235,10.0004206 16.269605,10.7810007 15.9727416,11.4376065 L10.2113765,24.1787315 C9.9144679,24.8353373 9.13525242,25.1292609 8.47975639,24.8318496 M17.4704433,0 L17.4703981,0 C7.86170177,0 0,7.87496716 0,17.4999774 L0,17.5000226 C0,27.1249875 7.86170177,35 17.4703981,35 L17.4704433,35 C27.0791397,35 34.9408867,27.1249875 34.9408867,17.5000226 L34.9408867,17.4999774 C34.9408867,7.87496716 27.0791397,0 17.4704433,0" id="Fill-1" fill="#FFFFFE" mask="url(#mask-2)"></path>
                </g>
                <g id="COMPLIANCEMONITOR-2" transform="translate(41.758621, 4.268293)" fill="#FFFFFF" fill-rule="nonzero">
                    <path d="M8.2220621,3.37127769 C7.51351815,2.55803088 6.49498622,2.02572388 5.53549962,2.02572388 C3.76413974,2.02572388 2.39133583,3.4008503 2.39133583,5.20477959 C2.39133583,7.00870888 3.76413974,8.39862162 5.53549962,8.39862162 C6.46546355,8.39862162 7.48399548,7.92545983 8.2220621,7.18614455 L9.594866,8.67956142 C8.50252741,9.80332065 6.92306485,10.5278496 5.41740896,10.5278496 C2.3322905,10.5278496 0,8.23597225 0,5.2343522 C0,2.24751846 2.3765745,0 5.50597695,0 C6.99687151,0 8.56157274,0.665383755 9.58010467,1.71521146 L8.2220621,3.37127769 Z M15.7946256,0 C18.9535507,0 21.3448865,2.24751846 21.3448865,5.24913851 C21.3448865,8.23597225 18.9535507,10.5278496 15.7946256,10.5278496 C12.6357005,10.5278496 10.2443646,8.25075856 10.2443646,5.24913851 C10.2443646,2.23273215 12.6357005,0 15.7946256,0 Z M15.8241482,2.04051018 C14.082311,2.04051018 12.6357005,3.43042291 12.6357005,5.24913851 C12.6357005,7.06785411 14.0970724,8.48733945 15.8241482,8.48733945 C17.5512241,8.48733945 18.9535507,7.06785411 18.9535507,5.24913851 C18.9535507,3.43042291 17.5512241,2.04051018 15.8241482,2.04051018 Z M22.8800651,0.0739315283 L25.4928209,0.0739315283 L28.5041327,6.40247035 L31.5006831,0.0739315283 L34.0986776,0.0739315283 L34.0986776,10.4243455 L32.0025684,10.4243455 L32.0025684,3.44520922 L29.2569606,9.37451779 L27.7365434,9.37451779 L24.9909356,3.44520922 L24.9909356,10.4243455 L22.8800651,10.4243455 L22.8800651,0.0739315283 Z M40.7707998,0.0739315283 C43.398317,0.0739315283 44.9039729,1.37512643 44.9039729,3.6670038 C44.9039729,6.07717163 43.398317,7.46708436 40.7707998,7.46708436 L38.7189746,7.46708436 L38.7189746,10.4243455 L36.3866841,10.4243455 L36.3866841,0.0739315283 L40.7707998,0.0739315283 Z M40.6527092,5.51529201 C41.9517064,5.51529201 42.689773,4.92383979 42.689773,3.74093533 C42.689773,2.58760349 41.9517064,2.01093757 40.6527092,2.01093757 L38.7189746,2.01093757 L38.7189746,5.51529201 L40.6527092,5.51529201 Z M46.3948674,0.0739315283 L48.727158,0.0739315283 L48.727158,8.38383531 L53.1555576,8.38383531 L53.1555576,10.4243455 L46.3948674,10.4243455 L46.3948674,0.0739315283 Z M54.5431229,0.0739315283 L56.8754134,0.0739315283 L56.8754134,10.4243455 L54.5431229,10.4243455 L54.5431229,0.0739315283 Z M66.7950287,10.4243455 L65.9831554,8.41340792 L61.2004838,8.41340792 L60.3886105,10.4243455 L57.9825133,10.4243455 L62.4699583,0.0739315283 L64.8760555,0.0739315283 L69.2896939,10.4243455 L66.7950287,10.4243455 Z M61.968073,6.5355471 L65.2303275,6.5355471 L63.6065809,2.51367196 L61.968073,6.5355471 Z M70.3672711,0.0739315283 L72.492903,0.0739315283 L77.511756,6.72776908 L77.511756,0.0739315283 L79.7259558,0.0739315283 L79.7259558,10.4243455 L77.6003239,10.4243455 L72.5962323,3.78529425 L72.5962323,10.4243455 L70.3672711,10.4243455 L70.3672711,0.0739315283 Z M89.4831965,3.37127769 C88.7746525,2.55803088 87.7561206,2.02572388 86.796634,2.02572388 C85.0252741,2.02572388 83.6524702,3.4008503 83.6524702,5.20477959 C83.6524702,7.00870888 85.0252741,8.39862162 86.796634,8.39862162 C87.7265979,8.39862162 88.7451298,7.92545983 89.4831965,7.18614455 L90.8560004,8.67956142 C89.7636618,9.80332065 88.1841992,10.5278496 86.6785433,10.5278496 C83.5934249,10.5278496 81.2611344,8.23597225 81.2611344,5.2343522 C81.2611344,2.24751846 83.6377089,0 86.7671113,0 C88.2580059,0 89.8227071,0.665383755 90.841239,1.71521146 L89.4831965,3.37127769 Z M92.2435656,0.0739315283 L100.111356,0.0739315283 L100.111356,2.01093757 L94.5758561,2.01093757 L94.5758561,4.25845603 L99.5504251,4.25845603 L99.5504251,6.19546207 L94.5758561,6.19546207 L94.5758561,8.48733945 L100.27373,8.48733945 L100.27373,10.4243455 L92.2435656,10.4243455 L92.2435656,0.0739315283 Z M1.32738339,16.0933133 L2.07652101,16.0933133 L5.70596359,23.2092229 L9.30957384,16.0933133 L10.0587115,16.0933133 L10.0587115,25.1369875 L9.54206482,25.1369875 L9.52914866,16.8437183 L5.82220908,24.1536982 L5.57680193,24.1536982 L1.84403002,16.8437183 L1.84403002,25.1369875 L1.32738339,25.1369875 L1.32738339,16.0933133 Z M16.878447,16.0803753 C19.4616801,16.0803753 21.554099,18.098706 21.554099,20.6086814 C21.554099,23.1186568 19.4616801,25.1499255 16.878447,25.1499255 C14.2952138,25.1499255 12.202795,23.1186568 12.202795,20.6086814 C12.202795,18.098706 14.2952138,16.0803753 16.878447,16.0803753 Z M16.878447,16.610834 C14.618118,16.610834 12.7581901,18.3962804 12.7581901,20.6086814 C12.7581901,22.8210824 14.618118,24.6194668 16.878447,24.6194668 C19.138776,24.6194668 20.9987039,22.8210824 20.9987039,20.6086814 C20.9987039,18.3962804 19.138776,16.610834 16.878447,16.610834 Z M23.6981825,16.0933133 L24.3310746,16.0933133 L30.362924,24.3089544 L30.362924,16.0933133 L30.8924868,16.0933133 L30.8924868,25.1369875 L30.2595947,25.1369875 L24.2406615,16.9213464 L24.2406615,25.1369875 L23.6981825,25.1369875 L23.6981825,16.0933133 Z M33.9923666,16.0933133 L34.5348456,16.0933133 L34.5348456,25.1369875 L33.9923666,25.1369875 L33.9923666,16.0933133 Z M36.2397795,16.0933133 L42.8786887,16.0933133 L42.8786887,16.623772 L39.8304736,16.623772 L39.8304736,25.1369875 L39.2879946,25.1369875 L39.2879946,16.623772 L36.2397795,16.623772 L36.2397795,16.0933133 Z M48.3034783,16.0803753 C50.8867115,16.0803753 52.9791303,18.098706 52.9791303,20.6086814 C52.9791303,23.1186568 50.8867115,25.1499255 48.3034783,25.1499255 C45.7202451,25.1499255 43.6278263,23.1186568 43.6278263,20.6086814 C43.6278263,18.098706 45.7202451,16.0803753 48.3034783,16.0803753 Z M48.3034783,16.610834 C46.0431493,16.610834 44.1832214,18.3962804 44.1832214,20.6086814 C44.1832214,22.8210824 46.0431493,24.6194668 48.3034783,24.6194668 C50.5638073,24.6194668 52.4237352,22.8210824 52.4237352,20.6086814 C52.4237352,18.3962804 50.5638073,16.610834 48.3034783,16.610834 Z M61.8525362,25.1369875 L61.2067279,25.1369875 L59.0755606,22.0706774 C58.8301534,22.1094914 58.5847463,22.1224294 58.3135068,22.1224294 L55.6656928,22.1224294 L55.6656928,25.1369875 L55.1232138,25.1369875 L55.1232138,16.0933133 L58.3135068,16.0933133 C60.5480034,16.0933133 61.8137877,17.1801068 61.8137877,19.0690573 C61.8137877,20.6086814 61.0259016,21.6178467 59.5922072,21.9801112 L61.8525362,25.1369875 Z M55.6656928,21.5919707 L58.3264229,21.5919707 C60.2121831,21.5919707 61.2842249,20.6992475 61.2842249,19.0819953 C61.2842249,17.4906192 60.2121831,16.623772 58.3264229,16.623772 L55.6656928,16.623772 L55.6656928,21.5919707 Z" id="COMPLIANCEMONITOR"></path>
                </g>
                <path d="M118.604709,23.4858537 L118.604709,23.9741463 L120.155744,23.9741463 L120.155744,24.9729268 L118.604709,24.9729268 L118.604709,29.8780488 L117.363882,29.8780488 L117.363882,24.9729268 L116.621601,24.9729268 L116.621601,23.9741463 L117.363882,23.9741463 L117.363882,23.5191463 C117.363882,22.8976798 117.550373,22.4038433 117.923362,22.037622 C118.296351,21.6714006 118.741346,21.4882927 119.25836,21.4882927 C119.797531,21.4882927 120.284995,21.6843476 120.720764,22.0764634 L120.211138,22.9531707 C119.967403,22.6942263 119.701514,22.5647561 119.413463,22.5647561 C119.169728,22.5647561 118.974004,22.647987 118.826286,22.8144512 C118.678567,22.9809155 118.604709,23.204714 118.604709,23.4858537 Z M123.036236,28.3243902 C123.39076,28.679514 123.837602,28.8570732 124.376773,28.8570732 C124.915945,28.8570732 125.36094,28.6776644 125.711771,28.3188415 C126.062602,27.9600185 126.238015,27.4957752 126.238015,26.9260976 C126.238015,26.3564199 126.062602,25.8921766 125.711771,25.5333537 C125.36094,25.1745307 124.915945,24.995122 124.376773,24.995122 C123.837602,24.995122 123.392607,25.1745307 123.041776,25.5333537 C122.690945,25.8921766 122.515532,26.3564199 122.515532,26.9260976 C122.515532,27.4957752 122.689098,27.9618681 123.036236,28.3243902 Z M126.592537,29.090122 C126.001664,29.6745964 125.263083,29.9668293 124.376773,29.9668293 C123.490464,29.9668293 122.751883,29.6727468 122.16101,29.0845732 C121.570137,28.4963995 121.274704,27.7769148 121.274704,26.9260976 C121.274704,26.0752803 121.570137,25.3557956 122.16101,24.767622 C122.751883,24.1794483 123.490464,23.8853659 124.376773,23.8853659 C125.263083,23.8853659 126.001664,24.1794483 126.592537,24.767622 C127.18341,25.3557956 127.478842,26.0752803 127.478842,26.9260976 C127.478842,27.7769148 127.18341,28.4982491 126.592537,29.090122 Z M132.209498,23.8853659 L132.220576,25.1393902 C131.578002,25.1245934 131.097924,25.3206484 130.78033,25.727561 C130.462736,26.1344736 130.303941,26.6745495 130.303941,27.3478049 L130.303941,29.8780488 L129.063113,29.8780488 L129.063113,23.9741463 L130.303941,23.9741463 L130.303941,25.1615854 C130.503361,24.7916648 130.774789,24.4883345 131.118234,24.2515854 C131.461679,24.0148362 131.82543,23.8927643 132.209498,23.8853659 Z M139.942512,22.1208537 L143.354788,29.8780488 L141.914542,29.8780488 L141.127946,28.1135366 L137.416542,28.1135366 L136.663182,29.8780488 L135.267251,29.8780488 L138.679527,22.1208537 L139.942512,22.1208537 Z M140.607241,26.9039024 L139.277783,23.9186585 L137.959404,26.9039024 L140.607241,26.9039024 Z M144.097069,26.9260976 C144.097069,25.9938978 144.381422,25.2540678 144.950138,24.7065854 C145.518853,24.159103 146.179883,23.8853659 146.933246,23.8853659 C147.753083,23.8853659 148.403034,24.2182894 148.883118,24.8841463 L148.883118,21.6436585 L150.123946,21.6436585 L150.123946,29.8780488 L148.883118,29.8780488 L148.883118,28.9902439 C148.425191,29.6413041 147.756776,29.9668293 146.877852,29.9668293 C146.131875,29.9668293 145.481924,29.6856939 144.92798,29.1234146 C144.374037,28.5611354 144.097069,27.8287037 144.097069,26.9260976 Z M147.165901,28.8681707 C147.645986,28.8681707 148.055898,28.688762 148.39565,28.329939 C148.735402,27.9711161 148.905276,27.5179702 148.905276,26.9704878 C148.905276,26.3934117 148.735402,25.9162214 148.39565,25.5389024 C148.055898,25.1615835 147.645986,24.9729268 147.165901,24.9729268 C146.656273,24.9729268 146.224204,25.1615835 145.86968,25.5389024 C145.515156,25.9162214 145.337897,26.3860134 145.337897,26.9482927 C145.337897,27.5179703 145.518849,27.9803641 145.880759,28.3354878 C146.242668,28.6906115 146.671045,28.8681707 147.165901,28.8681707 Z M153.358961,26.6819512 L153.358961,29.8780488 L152.118133,29.8780488 L152.118133,23.9741463 L153.358961,23.9741463 L153.358961,25.0506098 C153.536223,24.6880876 153.803958,24.4032531 154.162175,24.1960976 C154.520392,23.9889421 154.9063,23.8853659 155.319911,23.8853659 C156.250537,23.8853659 156.882023,24.2700775 157.214389,25.0395122 C157.797876,24.2700775 158.525378,23.8853659 159.396916,23.8853659 C160.061649,23.8853659 160.598966,24.0888191 161.008884,24.4957317 C161.418803,24.9026443 161.623759,25.4908092 161.623759,26.2602439 L161.623759,29.8780488 L160.382931,29.8780488 L160.382931,26.637561 C160.382931,25.5499946 159.932397,25.0062195 159.031315,25.0062195 C158.610318,25.0062195 158.242874,25.1412385 157.928973,25.4112805 C157.615072,25.6813225 157.450737,26.075282 157.435966,26.5931707 L157.435966,29.8780488 L156.195138,29.8780488 L156.195138,26.637561 C156.195138,26.0752817 156.09543,25.6628265 155.89601,25.4001829 C155.69659,25.1375393 155.382693,25.0062195 154.95431,25.0062195 C154.525927,25.0062195 154.152944,25.1486368 153.83535,25.4334756 C153.517755,25.7183144 153.358961,26.1344688 153.358961,26.6819512 Z M165.013877,29.8780488 L163.773049,29.8780488 L163.773049,23.9741463 L165.013877,23.9741463 L165.013877,29.8780488 Z M163.850601,22.8089024 C163.695497,22.6461374 163.617946,22.4574807 163.617946,22.2429268 C163.617946,22.0283729 163.695497,21.8471146 163.850601,21.6991463 C164.005705,21.5511781 164.19035,21.4771951 164.404542,21.4771951 C164.626119,21.4771951 164.810764,21.5511781 164.958483,21.6991463 C165.106201,21.8471146 165.180059,22.0283729 165.180059,22.2429268 C165.180059,22.4574807 165.102508,22.6442878 164.947404,22.8033537 C164.7923,22.9624195 164.611348,23.0419512 164.404542,23.0419512 C164.19035,23.0419512 164.005705,22.9642691 163.850601,22.8089024 Z M168.44831,26.6819512 L168.44831,29.8780488 L167.207483,29.8780488 L167.207483,23.9741463 L168.44831,23.9741463 L168.44831,25.0506098 C168.64773,24.6880876 168.922851,24.4032531 169.273682,24.1960976 C169.624513,23.9889421 170.003036,23.8853659 170.409261,23.8853659 C171.073993,23.8853659 171.611311,24.0888191 172.021229,24.4957317 C172.431147,24.9026443 172.636103,25.4908092 172.636103,26.2602439 L172.636103,29.8780488 L171.395276,29.8780488 L171.395276,26.637561 C171.395276,25.5499946 170.944742,25.0062195 170.04366,25.0062195 C169.615277,25.0062195 169.242294,25.1486368 168.9247,25.4334756 C168.607105,25.7183144 168.44831,26.1344688 168.44831,26.6819512 Z" id="forAdmin" fill="#FFFFFF" fill-rule="nonzero"></path>
            </g>
        </g>
    </g>
</svg>